<svg width="40" height="40" viewBox="0 0 40 40" fill="none" xmlns="http://www.w3.org/2000/svg">
<path d="M18.6634 20.0001C18.6634 19.5899 18.6244 19.5614 15.5367 17.719C13.8171 16.6928 12.3686 15.8505 12.3181 15.8473C12.2676 15.844 12.2261 17.7128 12.2261 20.0001C12.2261 22.2875 12.2676 24.1563 12.3181 24.153C12.3686 24.1497 13.8171 23.3075 15.5367 22.2813C18.6244 20.4388 18.6634 20.4103 18.6634 20.0001Z" fill="white"/>
<path d="M26.9398 20.0001C26.9398 19.9488 25.3971 18.9921 23.5115 17.8741C21.626 16.756 20.0535 15.8413 20.017 15.8413C19.9806 15.8413 19.9508 17.7128 19.9508 20.0001C19.9508 22.2875 19.9806 24.1589 20.017 24.1589C20.1621 24.1589 26.9398 20.0872 26.9398 20.0001Z" fill="white"/>
<path fill-rule="evenodd" clip-rule="evenodd" d="M20 40C31.0457 40 40 31.0457 40 20C40 8.9543 31.0457 0 20 0C8.9543 0 0 8.9543 0 20C0 31.0457 8.9543 40 20 40ZM11 20.0001C11 14.5771 11.0055 14.4494 11.2515 14.1966C11.4201 14.0233 11.5857 13.9651 11.7538 14.0199C11.8918 14.0649 13.5029 14.9931 15.334 16.0825L18.6634 18.0633L18.7247 16.1856C18.7794 14.5122 18.812 14.2886 19.0249 14.1289C19.1562 14.0304 19.3678 13.9837 19.4953 14.0253C20.0823 14.2169 28.9088 19.5724 28.9713 19.775C29.0096 19.8988 29.0096 20.1014 28.9713 20.2252C28.9088 20.4279 20.0823 25.7834 19.4953 25.9749C19.3678 26.0165 19.1562 25.9699 19.0249 25.8713C18.812 25.7118 18.7794 25.4882 18.7247 23.8179L18.6634 21.9434L15.3391 23.9193C13.5108 25.0061 11.8996 25.9328 11.7589 25.9787C11.5849 26.0354 11.4225 25.9795 11.2515 25.8037C11.0055 25.5509 11 25.4232 11 20.0001Z" fill="white"/>
</svg>
