<svg width="37" height="34" viewBox="0 0 37 34" fill="none" xmlns="http://www.w3.org/2000/svg">
<path fill-rule="evenodd" clip-rule="evenodd" d="M5.8179 0.394689C4.07712 0.957469 1.70983 3.00758 0.861385 4.68686C-1.15911 8.68657 0.496046 13.6433 4.5593 15.7614C5.63677 16.323 6.92474 16.7824 7.42144 16.7824C10.0153 16.7824 10.3933 21.1767 8.18797 25.6886C7.15995 27.7914 4.61617 30.8388 2.63863 32.3364C1.89899 32.8964 1.8143 33.089 2.13544 33.4798C2.69396 34.1596 3.03334 34.0791 4.92278 32.8184C9.94389 29.4689 14.294 23.2817 16.1012 16.9201C17.0952 13.422 17.1234 7.62125 16.1568 5.50747C15.2661 3.55881 13.3819 1.50995 11.8488 0.822627C10.0601 0.0204389 7.53055 -0.159039 5.8179 0.394689ZM26.0368 0.359106C22.2876 1.59329 20.1097 4.4665 20.0776 8.22117C20.0451 11.9986 22.3964 15.3176 25.8149 16.3198C29.5143 17.4045 29.8067 17.7784 29.5539 21.1021C29.3174 24.2081 27.6725 27.2586 24.4975 30.4786C23.0791 31.9169 21.9185 33.1989 21.9185 33.3275C21.9185 33.4561 22.1046 33.7173 22.3324 33.908C22.6504 34.1749 23.2745 33.8896 25.0369 32.6723C28.2146 30.4771 30.0175 28.632 32.128 25.4155C34.3549 22.0216 35.7257 18.7632 36.4802 15.0713C37.4223 10.4626 37.0928 7.09187 35.4179 4.20586C33.4747 0.857586 29.4884 -0.777067 26.0368 0.359106Z" fill="black"/>
</svg>
