<svg width="40" height="40" viewBox="0 0 40 40" fill="none" xmlns="http://www.w3.org/2000/svg">
<path fill-rule="evenodd" clip-rule="evenodd" d="M20 40C31.0457 40 40 31.0457 40 20C40 8.9543 31.0457 0 20 0C8.9543 0 0 8.9543 0 20C0 31.0457 8.9543 40 20 40ZM11.3121 14.7007C11.8593 13.493 12.7083 12.6934 13.9484 12.2178C14.4506 12.0251 14.8201 11.9773 15.56 12.0091C16.9139 12.0674 17.6597 12.4464 18.9131 13.7128C19.4539 14.2594 19.943 14.7064 20 14.7064C20.057 14.7064 20.5461 14.2594 21.087 13.7128C22.4413 12.3445 23.0955 12.0345 24.62 12.0391C25.5914 12.0421 25.8576 12.0901 26.42 12.3636C27.3964 12.8386 28.1474 13.5917 28.6056 14.5551C28.972 15.3258 29 15.4726 29 16.6319C29 17.1534 29.0001 17.5429 28.9211 17.9155C28.6878 19.0156 27.7648 19.9694 24.1132 23.7445L19.997 28L15.8345 23.6824C12.2049 19.9178 11.3 18.9921 11.0746 17.9232C10.9963 17.5518 11 17.163 11 16.6319C11 15.5534 11.0412 15.2989 11.3121 14.7007Z" fill="white"/>
</svg>
