<svg width="120" height="44" viewBox="0 0 120 44" fill="none" xmlns="http://www.w3.org/2000/svg">
<path fill-rule="evenodd" clip-rule="evenodd" d="M71.5238 1.42015L69.0708 1.0522V1.03283L60.679 0V30.717H69.084H69.973H70.9218C71.3092 30.717 72.3701 30.7535 73.4604 30.5977C74.3641 30.4686 75.1387 30.0813 75.6552 29.694C76.5589 28.9194 77.0753 28.0156 77.5917 26.8537C77.979 25.6918 78.2372 24.2716 78.2372 22.8515C78.2372 21.044 77.8499 19.6239 77.2044 18.3328C76.5589 17.0418 75.6552 16.138 74.235 15.4925C75.1387 15.1052 75.7843 14.4597 76.3007 13.6851C76.9462 12.5231 77.3335 11.103 77.3335 9.42462C77.2044 7.35895 76.8171 5.68059 75.7843 4.13134C74.7514 2.58209 73.3313 1.67836 71.5238 1.42015ZM69.0708 24.4007H69.5984C70.6312 24.4007 71.2656 24.0134 71.782 23.497C72.1693 22.9806 72.4275 22.206 72.4275 21.3022C72.4275 20.3985 72.1693 19.753 71.782 19.2366C71.3947 18.7201 70.6201 18.3328 69.5872 18.3328H69.0708H66.6179V24.4007H69.0708ZM69.0708 12.5504C69.9937 12.5504 70.6201 12.5231 71.0074 12.1358C71.3947 11.6194 71.5238 10.9739 71.5238 10.0701C71.5238 9.16641 71.3947 8.52089 71.0074 8.00447C70.6201 7.48805 70.1914 7.01582 69.124 6.93676L66.6179 6.84253V12.5504C66.9892 12.5504 67.859 12.5504 67.859 12.5504C67.859 12.5504 68.6496 12.5504 69.0708 12.5504Z" fill="#ED1C24"/>
<path d="M111.019 16.744H111.277C111.665 16.8086 112.084 16.8409 112.504 16.8731C112.924 16.9054 113.343 16.9377 113.73 17.0022V12.2254C113.629 12.2109 113.53 12.1964 113.431 12.1822L113.43 12.182C112.651 12.0689 111.95 11.9672 111.148 11.9672V7.21349C112.571 7.37162 113.989 7.60989 115.409 7.83581L115.409 7.83585C116.829 8.06178 118.401 8.42049 119.863 8.69722C119.863 10.5687 119.863 12.1936 119.863 14.0737C119.863 15.9538 119.863 17.8549 119.863 19.7269C119.863 21.5989 119.863 23.4429 119.863 25.3295C119.862 27.216 119.863 28.845 119.863 30.717H113.973C113.973 29.1678 113.973 27.8706 113.973 26.1312V21.5209H113.343C112.827 21.5209 112.65 21.4848 112.017 21.8011C111.661 21.9988 111.306 22.4336 111.019 23.0701C110.969 23.1827 110.922 23.2315 110.89 23.3284C110.841 23.4379 110.922 23.2315 110.89 23.3284C110.374 24.4903 109.728 25.9104 109.212 27.2015C108.954 27.7825 108.695 28.3957 108.437 29.0089L108.437 29.0103C108.179 29.623 107.967 30.1364 107.709 30.717H101.125C101.383 30.136 101.562 29.6222 101.788 29.0089C102.014 28.3957 102.24 27.7825 102.498 27.2015C102.757 26.6205 102.982 26.0395 103.208 25.4586C103.434 24.8776 103.66 24.2966 103.919 23.7157C104.048 23.3284 104.624 22.236 104.624 22.236C104.624 22.236 104.96 21.6592 105.178 21.3662C105.329 21.1642 105.414 21.0484 105.597 20.8754C106.089 20.4111 106.371 20.359 107.146 20.1007C106.242 19.8425 105.468 19.4552 104.951 19.0679C104.177 18.4224 103.531 17.5187 103.015 16.4858C102.498 15.453 102.369 14.2911 102.369 12.8709C102.369 11.3217 102.627 10.0306 103.144 8.99777C103.66 7.96494 104.435 7.31942 105.468 7.06121C106.371 6.803 107.787 6.89723 109.599 7.06121L111.148 7.21349V11.9672C110.08 11.9672 109.212 11.9672 108.824 12.3545C108.437 12.7418 108.308 13.2582 108.308 14.0328C108.308 14.5493 108.437 15.0657 108.695 15.453C108.954 15.8403 109.212 16.0985 109.728 16.3567C110.374 16.6149 110.761 16.744 111.019 16.744Z" fill="#ED1C24"/>
<path d="M92.9551 30.717H98.8939V18.0351C98.8939 15.9865 98.8622 13.9063 98.8301 11.81V11.8062C98.7976 9.67607 98.7648 7.52946 98.7648 5.38285C96.0536 4.99554 93.3425 4.57595 90.6313 4.15636L90.6309 4.1563C87.9198 3.73673 85.2088 3.31716 82.4977 2.92987V21.2627C82.4977 22.6828 82.3686 23.5866 81.9813 24.103C81.7231 24.6194 81.0775 24.8776 80.3029 24.8776H79.3992V30.717C80.1537 30.717 80.9502 30.717 81.5957 30.717C83.6614 30.717 85.2089 30.4291 86.1126 29.6545C87.1454 28.8798 87.6619 27.7179 87.9201 26.1687C88.0492 25.394 88.1783 24.3612 88.1783 23.0701V10.4179C88.8398 10.4781 89.5294 10.5662 90.2339 10.6563L90.2342 10.6563C91.042 10.7596 91.8695 10.8654 92.6969 10.9343C92.826 14.2911 92.826 17.5187 92.826 20.8754C92.826 22.5537 92.8583 24.1998 92.8906 25.8459L92.8906 25.8473C92.9229 27.4929 92.9551 29.0391 92.9551 30.717Z" fill="#ED1C24"/>
<path fill-rule="evenodd" clip-rule="evenodd" d="M47.7686 0.476885C50.738 0.0895716 53.3201 0.993302 54.9985 3.57539C55.9022 4.86643 56.5477 6.41569 56.935 8.35225C57.3223 10.2888 57.5805 12.4836 57.5805 14.9366C57.5805 16.744 57.4514 18.4224 57.3223 19.9716C57.1932 21.5209 56.935 22.8119 56.5477 23.9739C55.7731 26.2978 54.7402 28.1052 53.3201 29.3963C51.8999 30.6873 49.8343 31.0746 47.7686 31.0746C45.7029 31.0746 44.0246 30.5582 42.6044 29.5254C41.1843 28.4925 40.0224 26.9433 39.2477 24.6194C38.8604 23.5866 38.4731 22.2955 38.344 20.8754C38.0858 19.4552 38.0858 18.0351 38.0858 16.3567C38.0858 14.0328 38.344 11.9672 38.7313 10.1597C39.1186 8.35225 39.8932 6.67389 40.6679 5.25375C42.2171 2.67166 44.6701 0.993302 47.7686 0.476885ZM47.7686 24.3027C49.3179 24.2321 49.9634 23.5866 50.738 22.2955C51.3835 21.0045 51.7709 18.5515 51.7709 15.1948C51.7709 12.3545 51.3835 10.2888 50.738 8.99777C50.0925 7.83583 48.9305 7.2905 47.7686 7.4196C46.6067 7.54871 45.7029 8.35225 44.9283 9.6433C44.1537 11.0634 43.8955 13.1291 43.7664 16.0985C43.7664 19.0679 44.1537 21.1336 44.7992 22.4246C45.4447 23.7157 46.4314 24.3027 47.7686 24.3027Z" fill="#ED1C24"/>
<path fill-rule="evenodd" clip-rule="evenodd" d="M29.3067 3.70449L27.6283 3.9627C24.9171 4.35002 22.2059 4.73733 19.6239 4.86643C19.6239 7.07759 19.5911 9.25598 19.5586 11.4181C19.5266 13.5482 19.4948 15.6625 19.4948 17.7769C19.4948 19.9879 19.462 22.1662 19.4295 24.3282V24.3286L19.4295 24.3287C19.3974 26.4588 19.3711 28.6027 19.3711 30.717H25.3045V20.8754H25.4455C26.7265 20.8303 29.2511 20.7093 30.2237 20.4965C31.4888 20.2198 33.2678 19.3105 34.2166 17.5315C34.4108 17.1674 34.5867 16.811 34.7434 16.4743C35.322 15.0819 35.6328 13.4217 35.6328 11.4508C35.6328 8.61046 35.1164 6.54479 34.0836 5.25375C33.0507 3.9627 31.3724 3.44628 29.3067 3.70449ZM27.6283 9.35887C27.7661 9.36354 27.895 9.37281 28.0099 9.38779C28.9192 9.50639 29.354 10.0203 29.5912 10.5342C29.8284 11.0482 30.0261 12.9853 29.354 13.9736C28.8176 14.7624 28.1553 15.0475 27.6284 15.1908C27.4951 15.2271 27.3705 15.2542 27.2588 15.2782C26.816 15.3731 25.862 15.4231 25.4403 15.4363V9.50639C25.9063 9.43981 26.8937 9.33399 27.6283 9.35887Z" fill="#ED1C24"/>
<path d="M17.3154 30.717H10.7134C9.93876 28.6513 9.16641 26.6851 8.52089 24.6194C8.00447 23.1993 7.61716 22.2955 7.22984 21.9082C6.97164 21.5209 6.45522 21.3918 5.9388 21.3918V30.717H0C0 28.7804 0 26.8428 0 24.9452C0 23.0476 2.17843e-06 21.1495 2.17843e-06 19.2129C2.17843e-06 17.2764 2.17843e-06 15.3783 2.17843e-06 13.4807C2.17843e-06 11.5831 4.20489e-06 9.68499 4.20489e-06 7.74843C1.93657 7.49022 4.13134 7.19031 6.06791 6.803V15.8403C6.58432 15.7112 6.97164 15.453 7.22984 15.0657C7.48805 14.5493 8.00447 13.3873 8.64999 11.1925C9.0373 10.0306 9.42462 8.86867 9.94104 8.09404C10.4575 7.31942 11.103 6.803 12.1358 6.41569C13.1686 6.02837 14.7179 5.64106 16.9127 5.25375V10.547H16.6545C15.6216 10.6761 14.847 11.0634 14.4597 11.5799C13.9433 12.0963 13.556 13 13.1686 14.1619C12.9104 15.3239 12.5231 16.0985 12.1358 16.744C11.6194 17.3896 11.2321 17.7769 10.5866 18.1642C11.4903 18.4224 12.1358 19.0679 12.7813 19.8425C13.4269 20.7463 14.0724 22.0373 14.7179 23.8448C14.9115 24.4257 15.1375 24.9744 15.3634 25.5231L15.3635 25.5232C15.5894 26.0719 15.8153 26.6205 16.0089 27.2015C16.3963 28.4925 16.7989 29.555 17.3154 30.717Z" fill="#ED1C24"/>
<path d="M3.07809 34.9865C4.6052 34.9865 5.36876 36.0845 5.36876 38.2804C5.36876 39.2713 5.15798 40.072 4.73644 40.6824C4.31489 41.2848 3.71438 41.5861 2.93492 41.5861C2.27476 41.5861 1.74186 41.3562 1.33622 40.8964V43.8454L0 44V35.153H1.15727L1.24078 35.9616C1.47939 35.6445 1.75379 35.4027 2.06399 35.2362C2.38214 35.0697 2.72017 34.9865 3.07809 34.9865ZM2.70824 36.0091C2.42986 36.0091 2.17534 36.0924 1.94468 36.2589C1.71402 36.4253 1.51121 36.6433 1.33622 36.9129V39.85C1.64642 40.3177 2.06001 40.5516 2.577 40.5516C3.03832 40.5516 3.3843 40.3692 3.61496 40.0046C3.84562 39.6399 3.96095 39.0691 3.96095 38.2922C3.96095 37.4916 3.85755 36.9129 3.65075 36.5561C3.44396 36.1915 3.12979 36.0091 2.70824 36.0091Z" fill="black"/>
<path d="M8.26322 38.7203C8.30299 39.3307 8.47797 39.7905 8.78817 40.0997C9.10632 40.4009 9.504 40.5516 9.98123 40.5516C10.2755 40.5516 10.5539 40.508 10.8164 40.4208C11.0868 40.3256 11.3612 40.1869 11.6396 40.0046L12.2122 40.8132C11.918 41.0589 11.572 41.2492 11.1743 41.3839C10.7766 41.5187 10.359 41.5861 9.92157 41.5861C8.95917 41.5861 8.21152 41.2888 7.67863 40.6943C7.14573 40.0918 6.87928 39.2911 6.87928 38.2922C6.87928 37.666 6.99461 37.1031 7.22526 36.6037C7.45592 36.0964 7.78998 35.7 8.22743 35.4146C8.66489 35.1292 9.17392 34.9865 9.75454 34.9865C10.5897 34.9865 11.2498 35.2679 11.735 35.8308C12.2281 36.3857 12.4747 37.1507 12.4747 38.1258C12.4747 38.3636 12.4628 38.5618 12.4389 38.7203H8.26322ZM9.76647 35.9735C9.33697 35.9735 8.98701 36.1281 8.71659 36.4372C8.44616 36.7464 8.29106 37.2062 8.25129 37.8166H11.1743C11.1584 37.222 11.0311 36.7662 10.7925 36.4491C10.5539 36.132 10.2119 35.9735 9.76647 35.9735Z" fill="black"/>
<path d="M14.9635 41.4315V35.153H19.5687L19.4136 36.2232H16.2998V41.4315H14.9635Z" fill="black"/>
<path d="M26.4957 41.4315H25.2072V38.8511C25.2072 38.3517 25.2271 37.884 25.2669 37.448C25.3067 37.004 25.3464 36.6909 25.3862 36.5086L22.9524 41.4315H21.461V35.153H22.7495V37.7453C22.7495 38.205 22.7297 38.6609 22.6899 39.1127C22.6581 39.5646 22.6183 39.8777 22.5706 40.0521L24.9806 35.153H26.4957V41.4315Z" fill="black"/>
<path d="M31.144 34.9865C32.0507 34.9865 32.7507 35.2838 33.2438 35.8783C33.7369 36.465 33.9835 37.2656 33.9835 38.2804C33.9835 39.2951 33.7329 40.0997 33.2318 40.6943C32.7308 41.2888 32.0308 41.5861 31.1321 41.5861C30.2253 41.5861 29.5214 41.2967 29.0204 40.718C28.5272 40.1314 28.2807 39.3228 28.2807 38.2922C28.2807 37.2934 28.5312 36.4927 29.0323 35.8902C29.5413 35.2878 30.2452 34.9865 31.144 34.9865ZM31.144 36.021C30.6588 36.021 30.293 36.2073 30.0464 36.5799C29.8078 36.9525 29.6885 37.5233 29.6885 38.2922C29.6885 39.0691 29.8078 39.6439 30.0464 40.0165C30.285 40.3811 30.6469 40.5635 31.1321 40.5635C31.6172 40.5635 31.9791 40.3772 32.2178 40.0046C32.4564 39.632 32.5757 39.0572 32.5757 38.2804C32.5757 37.5114 32.4564 36.9446 32.2178 36.5799C31.9791 36.2073 31.6212 36.021 31.144 36.021Z" fill="black"/>
<path d="M39.4669 38.7441H37.1046V41.4315H35.7684V35.153H37.1046V37.7096H39.4669V35.153H40.8031V41.4315H39.4669V38.7441Z" fill="black"/>
<path d="M47.742 39.8975C47.742 40.1354 47.7778 40.3137 47.8494 40.4326C47.921 40.5436 48.0443 40.6269 48.2193 40.6824L47.9091 41.5861C47.2489 41.5068 46.8154 41.2175 46.6086 40.718C46.378 41.0034 46.0877 41.2214 45.7377 41.372C45.3957 41.5147 45.0179 41.5861 44.6043 41.5861C43.968 41.5861 43.4629 41.4077 43.0891 41.051C42.7153 40.6943 42.5284 40.2226 42.5284 39.6359C42.5284 38.978 42.7869 38.4706 43.3039 38.1139C43.8288 37.7571 44.5685 37.5788 45.5229 37.5788H46.4177V37.1745C46.4177 36.7781 46.2984 36.4888 46.0598 36.3064C45.8212 36.1241 45.4752 36.0329 45.0219 36.0329C44.7992 36.0329 44.5407 36.0607 44.2464 36.1162C43.9521 36.1717 43.6538 36.2509 43.3516 36.354L43.0175 35.4146C43.7731 35.1292 44.5089 34.9865 45.2247 34.9865C46.0598 34.9865 46.6882 35.1688 47.1097 35.5335C47.5313 35.8982 47.742 36.4174 47.742 37.0912V39.8975ZM44.998 40.611C45.2764 40.611 45.5428 40.5397 45.7973 40.397C46.0598 40.2543 46.2666 40.0561 46.4177 39.8024V38.4112H45.678C45.0736 38.4112 44.6321 38.5142 44.3537 38.7203C44.0754 38.9185 43.9362 39.2079 43.9362 39.5884C43.9362 39.9213 44.0237 40.175 44.1987 40.3494C44.3816 40.5238 44.648 40.611 44.998 40.611Z" fill="black"/>
<path d="M55.182 41.4315H53.8458V36.1875H51.8653L51.7699 37.5074C51.6983 38.4587 51.5989 39.188 51.4716 39.6954C51.3523 40.1948 51.1773 40.5793 50.9467 40.8488C50.724 41.1184 50.3939 41.3681 49.9565 41.598L49.3838 40.7537C49.6144 40.611 49.7934 40.4485 49.9207 40.2662C50.0559 40.0759 50.1672 39.7747 50.2547 39.3624C50.3502 38.9502 50.4297 38.3517 50.4933 37.5669L50.6723 35.153H55.182V41.4315Z" fill="black"/>
<path d="M58.8401 37.0912H59.8542C60.8245 37.0912 61.5284 37.2736 61.9659 37.6382C62.4113 38.0029 62.634 38.538 62.634 39.2435C62.634 39.9887 62.3874 40.5397 61.8943 40.8964C61.4091 41.2531 60.7808 41.4315 60.0093 41.4315H57.5038V35.153H58.8401V37.0912ZM58.8401 38.0425V40.4445H59.9496C60.3632 40.4445 60.6774 40.3534 60.8921 40.171C61.1148 39.9887 61.2262 39.6756 61.2262 39.2316C61.2262 38.8194 61.1228 38.5182 60.916 38.3279C60.7092 38.1377 60.3552 38.0425 59.8542 38.0425H58.8401Z" fill="black"/>
<path d="M68.0816 38.7441H65.7193V41.4315H64.3831V35.153H65.7193V37.7096H68.0816V35.153H69.4178V41.4315H68.0816V38.7441Z" fill="black"/>
<path d="M76.3568 39.8975C76.3568 40.1354 76.3925 40.3137 76.4641 40.4326C76.5357 40.5436 76.659 40.6269 76.834 40.6824L76.5238 41.5861C75.8636 41.5068 75.4301 41.2175 75.2234 40.718C74.9927 41.0034 74.7024 41.2214 74.3524 41.372C74.0104 41.5147 73.6326 41.5861 73.219 41.5861C72.5827 41.5861 72.0777 41.4077 71.7038 41.051C71.33 40.6943 71.1431 40.2226 71.1431 39.6359C71.1431 38.978 71.4016 38.4706 71.9186 38.1139C72.4435 37.7571 73.1832 37.5788 74.1377 37.5788H75.0325V37.1745C75.0325 36.7781 74.9132 36.4888 74.6745 36.3064C74.4359 36.1241 74.0899 36.0329 73.6366 36.0329C73.4139 36.0329 73.1554 36.0607 72.8611 36.1162C72.5668 36.1717 72.2685 36.2509 71.9663 36.354L71.6322 35.4146C72.3878 35.1292 73.1236 34.9865 73.8394 34.9865C74.6745 34.9865 75.3029 35.1688 75.7244 35.5335C76.146 35.8982 76.3568 36.4174 76.3568 37.0912V39.8975ZM73.6127 40.611C73.8911 40.611 74.1575 40.5397 74.4121 40.397C74.6745 40.2543 74.8813 40.0561 75.0325 39.8024V38.4112H74.2928C73.6883 38.4112 73.2468 38.5142 72.9685 38.7203C72.6901 38.9185 72.5509 39.2079 72.5509 39.5884C72.5509 39.9213 72.6384 40.175 72.8134 40.3494C72.9963 40.5238 73.2628 40.611 73.6127 40.611Z" fill="black"/>
<path d="M83.6059 35.153V41.4315H82.2697V39.089H80.8499L79.5733 41.4315H78.1059L79.6211 38.7917C79.2631 38.6252 78.9887 38.4032 78.7979 38.1258C78.6149 37.8404 78.5235 37.5074 78.5235 37.1269C78.5235 36.5006 78.7541 36.0171 79.2154 35.6762C79.6847 35.3274 80.3528 35.153 81.2198 35.153H83.6059ZM82.2697 38.1614V36.0924H81.1959C80.7664 36.0924 80.4443 36.1756 80.2295 36.3421C80.0227 36.5086 79.9193 36.7623 79.9193 37.1031C79.9193 37.4678 80.0188 37.7373 80.2176 37.9117C80.4244 38.0782 80.7465 38.1614 81.184 38.1614H82.2697Z" fill="black"/>
<path d="M96.0401 40.4921C96.5412 40.4921 97.0582 40.3137 97.5911 39.957L98.1996 40.8132C97.9212 41.051 97.5871 41.2412 97.1974 41.3839C96.8077 41.5187 96.406 41.5861 95.9924 41.5861C95.03 41.5861 94.2784 41.2928 93.7375 40.7061C93.1967 40.1116 92.9263 39.3188 92.9263 38.3279C92.9263 37.6858 93.0495 37.115 93.2961 36.6156C93.5427 36.1082 93.8966 35.7119 94.3579 35.4265C94.8272 35.1332 95.38 34.9865 96.0163 34.9865C96.8514 34.9865 97.5792 35.2402 98.1996 35.7475L97.5792 36.5799C97.0701 36.2311 96.5571 36.0567 96.0401 36.0567C95.5152 36.0567 95.1016 36.247 94.7994 36.6275C94.4971 37.0001 94.346 37.5669 94.346 38.3279C94.346 39.0731 94.4971 39.6201 94.7994 39.9689C95.1016 40.3177 95.5152 40.4921 96.0401 40.4921Z" fill="black"/>
<path d="M101.261 38.7203C101.301 39.3307 101.476 39.7905 101.786 40.0997C102.104 40.4009 102.502 40.5516 102.979 40.5516C103.273 40.5516 103.552 40.508 103.814 40.4208C104.085 40.3256 104.359 40.1869 104.637 40.0046L105.21 40.8132C104.916 41.0589 104.57 41.2492 104.172 41.3839C103.774 41.5187 103.357 41.5861 102.919 41.5861C101.957 41.5861 101.209 41.2888 100.676 40.6943C100.144 40.0918 99.8771 39.2911 99.8771 38.2922C99.8771 37.666 99.9924 37.1031 100.223 36.6037C100.454 36.0964 100.788 35.7 101.225 35.4146C101.663 35.1292 102.172 34.9865 102.752 34.9865C103.588 34.9865 104.248 35.2679 104.733 35.8308C105.226 36.3857 105.473 37.1507 105.473 38.1258C105.473 38.3636 105.461 38.5618 105.437 38.7203H101.261ZM102.764 35.9735C102.335 35.9735 101.985 36.1281 101.714 36.4372C101.444 36.7464 101.289 37.2062 101.249 37.8166H104.172C104.156 37.222 104.029 36.7662 103.79 36.4491C103.552 36.132 103.21 35.9735 102.764 35.9735Z" fill="black"/>
<path d="M112.638 36.1875H110.491V41.4315H109.154V36.1875H106.923V35.153H112.793L112.638 36.1875Z" fill="black"/>
<path d="M116.07 37.0912H117.084C118.054 37.0912 118.758 37.2736 119.195 37.6382C119.641 38.0029 119.863 38.538 119.863 39.2435C119.863 39.9887 119.617 40.5397 119.124 40.8964C118.639 41.2531 118.01 41.4315 117.239 41.4315H114.733V35.153H116.07V37.0912ZM116.07 38.0425V40.4445H117.179C117.593 40.4445 117.907 40.3534 118.122 40.171C118.344 39.9887 118.456 39.6756 118.456 39.2316C118.456 38.8194 118.352 38.5182 118.145 38.3279C117.939 38.1377 117.585 38.0425 117.084 38.0425H116.07Z" fill="black"/>
</svg>
