<svg width="40" height="40" viewBox="0 0 40 40" fill="none" xmlns="http://www.w3.org/2000/svg">
<path fill-rule="evenodd" clip-rule="evenodd" d="M20 40C31.0457 40 40 31.0457 40 20C40 8.9543 31.0457 0 20 0C8.9543 0 0 8.9543 0 20C0 31.0457 8.9543 40 20 40ZM29.228 12.7694C30.1808 13.3285 30.5173 14.5577 30.0069 15.6136C29.8268 15.9859 27.6967 18.1793 22.7528 23.0831L15.7536 30.0255L12.5772 26.8588C9.3625 23.654 8.94419 23.1322 8.93856 22.3197C8.93328 21.552 9.44094 20.7579 10.186 20.3681C10.5761 20.1641 11.4734 20.1416 11.9613 20.3237C12.151 20.3945 13.079 21.2226 14.0232 22.1639L15.7401 23.8753L21.0705 18.5247C24.0023 15.5819 26.6462 13.0145 26.9459 12.8192C27.6652 12.3507 28.4839 12.3328 29.228 12.7694Z" fill="white"/>
</svg>
