<svg width="40" height="40" viewBox="0 0 40 40" fill="none" xmlns="http://www.w3.org/2000/svg">
<path fill-rule="evenodd" clip-rule="evenodd" d="M20 40C31.0457 40 40 31.0457 40 20C40 8.9543 31.0457 0 20 0C8.9543 0 0 8.9543 0 20C0 31.0457 8.9543 40 20 40ZM15.1853 17.3429C13.9796 16.6377 14.0531 14.8446 15.3143 14.1948C16.1669 13.7555 17.3714 14.1783 17.7357 15.0447C18.4103 16.6489 16.6739 18.2136 15.1853 17.3429ZM23.999 17.382C22.7138 16.7217 22.7265 14.8684 24.0205 14.232C24.663 13.916 25.1111 13.922 25.707 14.2548C26.3265 14.6008 26.7433 15.4037 26.6379 16.0484C26.4421 17.2475 25.0783 17.9366 23.999 17.382ZM12.0205 20.3899C11.913 19.8205 12.2384 19.1791 12.7486 18.9554C13.4642 18.6413 14.0374 18.945 14.6322 19.9534C15.0403 20.6453 16.2621 21.7267 17.0917 22.1302C18.1611 22.6505 19.0746 22.8403 20.5024 22.8391C23.0732 22.8366 24.7675 22.0154 26.2561 20.0504C27.0213 19.0399 27.2162 18.8983 27.8406 18.8983C28.4148 18.8983 28.8929 19.3163 28.9865 19.8999C29.1996 21.2315 26.8613 23.9672 24.4958 25.1535C23.1564 25.8253 21.9242 26.0608 20.1362 25.987C18.0449 25.9006 16.8856 25.5145 15.2414 24.3572C13.8826 23.4007 12.197 21.3245 12.0205 20.3899Z" fill="white"/>
</svg>
