<svg width="40" height="40" viewBox="0 0 40 40" fill="none" xmlns="http://www.w3.org/2000/svg">
<path fill-rule="evenodd" clip-rule="evenodd" d="M20 40C31.0457 40 40 31.0457 40 20C40 8.9543 31.0457 0 20 0C8.9543 0 0 8.9543 0 20C0 31.0457 8.9543 40 20 40ZM21.865 14.1635L22.9548 16.4303L25.1384 16.7464C27.352 17.0669 27.9053 17.2513 27.9053 17.6683C27.9053 17.7955 27.1407 18.6976 26.2061 19.6728L24.5069 21.446L24.8893 23.8261C25.222 25.8978 25.248 26.241 25.0905 26.4752C24.991 26.6233 24.8165 26.7444 24.703 26.7444C24.5895 26.7444 23.6064 26.2585 22.5185 25.6645C21.4307 25.0706 20.4844 24.5847 20.4156 24.5847C20.3468 24.5847 19.4046 25.0706 18.3221 25.6645C17.2395 26.2585 16.2478 26.7444 16.1185 26.7444C15.9891 26.7444 15.8061 26.6477 15.712 26.5295C15.5689 26.35 15.5985 25.9457 15.8923 24.0661C16.0855 22.8294 16.243 21.7127 16.242 21.5845C16.2411 21.4563 15.5112 20.6125 14.6201 19.7095C13.3076 18.3793 13 17.9958 13 17.6897C13 17.4818 13.0722 17.2653 13.1603 17.2085C13.2486 17.1518 14.3421 16.9508 15.5905 16.7618L17.8604 16.4184L18.8513 14.3951C19.8759 12.3026 20.0426 11.962 20.2765 11.9071C20.3219 11.8964 20.3699 11.8965 20.4272 11.8966C20.4333 11.8966 20.4396 11.8966 20.4459 11.8966C20.7423 11.8966 20.8843 12.1235 21.865 14.1635Z" fill="white"/>
</svg>
